<svg xmlns="http://www.w3.org/2000/svg" width="3264" height="1088" viewBox="0 0 3264 1088" version="1.1"><path d="M 981.993 169.250 C 981.463 170.488, 968.603 204.350, 953.414 244.500 C 911.480 355.350, 904 375.200, 904 375.636 C 904 375.856, 914.458 375.916, 927.239 375.768 L 950.478 375.500 958.900 352.250 L 967.321 329 1005.601 329 C 1032.731 329, 1044.083 329.326, 1044.573 330.118 C 1044.953 330.732, 1048.763 341.195, 1053.040 353.368 L 1060.817 375.500 1084.408 375.768 C 1101.539 375.963, 1108 375.724, 1108 374.898 C 1108 373.835, 1099.361 350.890, 1049.210 218.750 L 1029.570 167 1006.263 167 C 983.046 167, 982.953 167.009, 981.993 169.250 M 1514.685 167.648 C 1514.308 168.025, 1514 215.058, 1514 272.167 L 1514 376 1536 376 L 1558 376 1558 307 C 1558 269.050, 1558.338 238.016, 1558.750 238.036 C 1559.162 238.056, 1562.033 242.218, 1565.128 247.286 C 1568.224 252.354, 1587.277 283.396, 1607.468 316.269 L 1644.178 376.037 1666.839 375.769 L 1689.500 375.500 1689.775 273.500 C 1689.926 217.400, 1689.805 170.488, 1689.506 169.250 C 1688.963 167.003, 1688.930 167, 1667.481 167 L 1646 167 1646 236 C 1646 273.950, 1645.662 304.996, 1645.250 304.991 C 1644.838 304.986, 1641.840 300.599, 1638.588 295.241 C 1635.337 289.883, 1619.862 264.575, 1604.200 239 C 1588.538 213.425, 1572.285 186.875, 1568.082 180 L 1560.439 167.500 1537.905 167.232 C 1525.511 167.084, 1515.062 167.272, 1514.685 167.648 M 2137.201 270.351 C 2115.640 327.214, 2098 374.247, 2098 374.869 C 2098 375.677, 2104.524 376, 2120.869 376 L 2143.738 376 2152.250 352.750 L 2160.762 329.500 2199.492 329.500 L 2238.223 329.500 2246.320 352.750 L 2254.416 376 2278.208 376 C 2291.294 376, 2302 375.812, 2302 375.583 C 2302 375.354, 2297.335 362.866, 2291.632 347.833 C 2285.930 332.800, 2272.828 298.225, 2262.517 271 C 2252.206 243.775, 2239.162 209.350, 2233.530 194.500 L 2223.291 167.500 2199.846 167.232 L 2176.402 166.965 2137.201 270.351 M 992.221 257.250 C 984.925 277.738, 978.965 294.837, 978.977 295.250 C 979.007 296.220, 1033 296.236, 1033 295.266 C 1033 293.700, 1006.642 220, 1006.082 220 C 1005.755 220, 999.517 236.762, 992.221 257.250 M 2198.955 220.050 C 2198.930 220.297, 2192.923 237.150, 2185.606 257.500 C 2178.289 277.850, 2172.486 294.837, 2172.710 295.250 C 2173.162 296.081, 2225.359 296.307, 2226.185 295.482 C 2226.787 294.880, 2201.189 221.970, 2199.877 220.550 C 2199.395 220.028, 2198.980 219.803, 2198.955 220.050" stroke="none" fill="#f9f9fb" fill-rule="evenodd"/><path d="M 755.667 53.667 C 755.300 54.033, 755 154.600, 755 277.148 L 755 499.962 757.250 500.504 C 758.487 500.802, 872 500.923, 1009.500 500.773 L 1259.500 500.500 1259.752 276.750 L 1260.004 53 1008.169 53 C 869.659 53, 756.033 53.300, 755.667 53.667 M 1335.248 276.748 L 1335.500 500.500 1598.230 500.752 L 1860.961 501.004 1861.504 498.752 C 1861.802 497.513, 1861.924 396.825, 1861.773 275 L 1861.500 53.500 1598.248 53.248 L 1334.996 52.996 1335.248 276.748 M 1930.248 276.750 L 1930.500 500.500 2212.500 500.773 C 2367.600 500.923, 2495.512 500.802, 2496.750 500.504 L 2499 499.962 2499 276.481 L 2499 53 2214.498 53 L 1929.996 53 1930.248 276.750 M 981.993 169.250 C 981.463 170.488, 968.603 204.350, 953.414 244.500 C 911.480 355.350, 904 375.200, 904 375.636 C 904 375.856, 914.458 375.916, 927.239 375.768 L 950.478 375.500 958.900 352.250 L 967.321 329 1005.601 329 C 1032.731 329, 1044.083 329.326, 1044.573 330.118 C 1044.953 330.732, 1048.763 341.195, 1053.040 353.368 L 1060.817 375.500 1084.408 375.768 C 1101.539 375.963, 1108 375.724, 1108 374.898 C 1108 373.835, 1099.361 350.890, 1049.210 218.750 L 1029.570 167 1006.263 167 C 983.046 167, 982.953 167.009, 981.993 169.250 M 1514.685 167.648 C 1514.308 168.025, 1514 215.058, 1514 272.167 L 1514 376 1536 376 L 1558 376 1558 307 C 1558 269.050, 1558.338 238.016, 1558.750 238.036 C 1559.162 238.056, 1562.033 242.218, 1565.128 247.286 C 1568.224 252.354, 1587.277 283.396, 1607.468 316.269 L 1644.178 376.037 1666.839 375.769 L 1689.500 375.500 1689.775 273.500 C 1689.926 217.400, 1689.805 170.488, 1689.506 169.250 C 1688.963 167.003, 1688.930 167, 1667.481 167 L 1646 167 1646 236 C 1646 273.950, 1645.662 304.996, 1645.250 304.991 C 1644.838 304.986, 1641.840 300.599, 1638.588 295.241 C 1635.337 289.883, 1619.862 264.575, 1604.200 239 C 1588.538 213.425, 1572.285 186.875, 1568.082 180 L 1560.439 167.500 1537.905 167.232 C 1525.511 167.084, 1515.062 167.272, 1514.685 167.648 M 2137.201 270.351 C 2115.640 327.214, 2098 374.247, 2098 374.869 C 2098 375.677, 2104.524 376, 2120.869 376 L 2143.738 376 2152.250 352.750 L 2160.762 329.500 2199.492 329.500 L 2238.223 329.500 2246.320 352.750 L 2254.416 376 2278.208 376 C 2291.294 376, 2302 375.812, 2302 375.583 C 2302 375.354, 2297.335 362.866, 2291.632 347.833 C 2285.930 332.800, 2272.828 298.225, 2262.517 271 C 2252.206 243.775, 2239.162 209.350, 2233.530 194.500 L 2223.291 167.500 2199.846 167.232 L 2176.402 166.965 2137.201 270.351 M 992.221 257.250 C 984.925 277.738, 978.965 294.837, 978.977 295.250 C 979.007 296.220, 1033 296.236, 1033 295.266 C 1033 293.700, 1006.642 220, 1006.082 220 C 1005.755 220, 999.517 236.762, 992.221 257.250 M 2198.955 220.050 C 2198.930 220.297, 2192.923 237.150, 2185.606 257.500 C 2178.289 277.850, 2172.486 294.837, 2172.710 295.250 C 2173.162 296.081, 2225.359 296.307, 2226.185 295.482 C 2226.787 294.880, 2201.189 221.970, 2199.877 220.550 C 2199.395 220.028, 2198.980 219.803, 2198.955 220.050 M 1212.500 564.681 C 1205.590 566.590, 1201 574.228, 1201 583.816 C 1201 589.895, 1200.953 590, 1198.250 590.004 C 1192.708 590.011, 1186.379 595.679, 1185.971 601 C 1185.571 606.199, 1184.817 606, 1204.935 606 C 1215.349 606, 1225.003 605.569, 1226.387 605.043 C 1229.634 603.808, 1232 599.175, 1232 594.050 L 1232 590 1224 590 L 1216 590 1216 586.042 L 1216 582.084 1223.750 581.792 L 1231.500 581.500 1231.456 576.225 C 1231.418 571.676, 1230.980 570.519, 1228.275 567.813 C 1225.660 565.198, 1224.252 564.630, 1219.819 564.402 C 1216.893 564.251, 1213.600 564.377, 1212.500 564.681 M 1806.241 566.995 C 1800.925 570.236, 1799.008 574.409, 1799.004 582.750 C 1799 589.991, 1798.996 590, 1796.250 590.004 C 1790.263 590.012, 1783.928 596.158, 1783.650 602.227 L 1783.500 605.500 1803.397 605.772 C 1821.260 606.015, 1823.495 605.862, 1825.250 604.274 C 1828.185 601.618, 1830 597.520, 1830 593.550 L 1830 590 1821.500 590 L 1813 590 1813 586 L 1813 582 1821 582 L 1829 582 1829 577.035 C 1829 572.907, 1828.477 571.473, 1825.896 568.535 C 1822.927 565.153, 1822.505 565, 1816.146 565.004 C 1811.279 565.006, 1808.627 565.539, 1806.241 566.995 M 1102.667 597.667 C 1102.300 598.033, 1102 604.122, 1102 611.197 L 1102 624.060 1114.750 623.780 L 1127.500 623.500 1127.782 611.079 C 1127.993 601.814, 1127.739 598.451, 1126.782 597.844 C 1125.248 596.871, 1103.622 596.711, 1102.667 597.667 M 1250.250 597.662 C 1249.268 598.059, 1249 612.086, 1249 663.083 L 1249 728 1212.472 728 L 1175.944 728 1176.222 741.750 L 1176.500 755.500 1218.500 755.500 C 1264.263 755.500, 1265.197 755.400, 1271.575 749.800 C 1278.036 744.128, 1278 744.583, 1278 667.425 C 1278 605.236, 1277.840 598.152, 1276.418 597.607 C 1274.541 596.887, 1252.055 596.934, 1250.250 597.662 M 1309.250 597.662 C 1308.265 598.060, 1308 614.764, 1308 676.476 C 1308 746.962, 1308.158 754.847, 1309.582 755.393 C 1311.640 756.183, 1333.360 756.183, 1335.418 755.393 C 1336.842 754.847, 1337 746.964, 1337 676.500 C 1337 606.036, 1336.842 598.153, 1335.418 597.607 C 1333.541 596.887, 1311.055 596.934, 1309.250 597.662 M 1521.667 597.667 C 1521.300 598.033, 1521 629.391, 1521 667.351 C 1521 734.536, 1521.054 736.479, 1523.019 740.538 C 1525.818 746.321, 1533.409 753.749, 1537.834 755.036 C 1540.358 755.771, 1574.831 756.009, 1648.500 755.801 C 1766.453 755.469, 1758.007 755.941, 1764.136 749.339 C 1770.588 742.390, 1770.500 743.021, 1770.500 703.500 L 1770.500 667.500 1756.500 667.500 L 1742.500 667.500 1742.235 697.750 L 1741.971 728 1712.500 728 L 1683.029 728 1682.765 697.750 L 1682.500 667.500 1668.500 667.500 L 1654.500 667.500 1654.235 697.750 L 1653.971 728 1601.985 728 L 1550 728 1550 663.107 C 1550 604.856, 1549.838 598.152, 1548.418 597.607 C 1546.264 596.780, 1522.500 596.833, 1521.667 597.667 M 1708.696 597.637 C 1708.313 598.020, 1708 604.108, 1708 611.167 L 1708 624 1721.029 624 L 1734.058 624 1733.779 610.750 L 1733.500 597.500 1721.446 597.221 C 1714.816 597.067, 1709.079 597.255, 1708.696 597.637 M 1893.218 597.844 C 1892.261 598.451, 1892.007 601.814, 1892.218 611.079 L 1892.500 623.500 1904.921 623.782 C 1914.186 623.993, 1917.549 623.739, 1918.156 622.782 C 1918.603 622.077, 1918.976 616.261, 1918.985 609.857 C 1918.997 600.153, 1918.737 598.113, 1917.418 597.607 C 1915.063 596.703, 1894.702 596.903, 1893.218 597.844 M 1925.250 597.647 C 1924.341 598.025, 1924 601.694, 1924 611.083 L 1924 624 1937.029 624 L 1950.058 624 1949.779 610.750 L 1949.500 597.500 1938 597.313 C 1931.675 597.211, 1925.938 597.361, 1925.250 597.647 M 2060.667 597.667 C 2060.300 598.033, 2060 627.508, 2060 663.167 L 2060 728 2013 728 L 1966 728 1966 706.366 C 1966 692.782, 1965.566 683.284, 1964.834 680.840 C 1964.142 678.529, 1961.960 675.374, 1959.462 673.072 C 1953.287 667.380, 1949.043 666.790, 1917.242 667.200 C 1886.897 667.592, 1884.678 668.053, 1878.520 675.248 C 1873.349 681.289, 1872.773 685.669, 1873.161 716 C 1873.495 742.124, 1873.536 742.563, 1876 746.916 C 1880.286 754.487, 1883.361 755.441, 1904.799 755.846 C 1914.863 756.037, 1924.213 755.912, 1925.577 755.570 L 1928.058 754.947 1927.779 741.724 L 1927.500 728.500 1914.750 728.220 L 1902 727.940 1902 711.470 L 1902 695 1919.415 695 L 1936.831 695 1937.165 716.750 L 1937.500 738.500 1940.338 743.328 C 1943.727 749.093, 1950.148 753.478, 1957.375 754.963 C 1960.696 755.645, 1982.064 755.925, 2018.074 755.758 L 2073.647 755.500 2077.815 752.741 C 2083.217 749.166, 2086.713 743.784, 2087.983 737.090 C 2088.609 733.791, 2089 706.041, 2089 664.970 C 2089 605.020, 2088.839 598.152, 2087.418 597.607 C 2085.264 596.780, 2061.500 596.833, 2060.667 597.667 M 2123.223 597.825 C 2122.204 598.485, 2122.003 612.623, 2122.223 668.075 L 2122.500 737.500 2125.234 742.151 C 2128.686 748.023, 2136.046 754.559, 2140.123 755.375 C 2145.627 756.475, 2362.076 756.048, 2367 754.926 C 2374.125 753.304, 2378.828 749.617, 2381.658 743.435 L 2384.139 738.016 2383.820 709.728 C 2383.503 681.681, 2383.478 681.397, 2380.956 676.500 C 2376.099 667.068, 2379.582 667.572, 2315.243 667 L 2258.987 666.500 2292.960 632.539 C 2315.646 609.862, 2326.530 598.320, 2325.717 597.804 C 2325.048 597.379, 2316.865 597.024, 2307.533 597.015 L 2290.565 597 2255.283 632.231 L 2220 667.462 2220 672.415 C 2220 681.979, 2227.392 691.602, 2236.501 693.896 C 2239.447 694.638, 2259.772 695, 2298.443 695 L 2356 695 2356 711.500 L 2356 728 2253.507 728 L 2151.014 728 2150.757 662.750 L 2150.500 597.500 2137.500 597.249 C 2130.350 597.112, 2123.926 597.371, 2123.223 597.825 M 1196 667 L 1196 724.055 1210.250 723.777 L 1224.500 723.500 1224.500 667 L 1224.500 610.500 1210.250 610.223 L 1196 609.945 1196 667 M 1799.243 684.750 L 1799.500 755.500 1813 755.500 L 1826.500 755.500 1826.757 684.750 L 1827.013 614 1813 614 L 1798.987 614 1799.243 684.750 M 800.439 668.297 C 800.151 669.049, 800.046 693.040, 800.207 721.611 L 800.500 773.557 803.025 778.461 C 804.870 782.046, 806.728 783.988, 809.932 785.682 L 814.315 788 858.689 788 C 906.657 788, 906.131 788.053, 913.449 782.471 C 919.952 777.511, 921.001 773.615, 920.994 754.434 C 920.988 735.514, 920.248 731.491, 915.851 726.483 C 911.819 721.891, 905.246 720, 893.318 720 L 884 720 884 707.500 L 884 695 908.985 695 L 933.971 695 934.235 725.250 L 934.500 755.500 962.750 755.766 L 991 756.031 991 761.334 C 991 767.842, 993.265 775.795, 996.169 779.488 C 997.365 781.008, 1000.178 783.085, 1002.421 784.104 C 1006.080 785.765, 1009.415 785.958, 1034.782 785.978 C 1064.999 786.002, 1067.549 785.651, 1072.754 780.761 C 1075.780 777.918, 1078 770.114, 1078 762.318 L 1078 756 1111.057 756 C 1131.570 756, 1145.755 755.587, 1148.436 754.912 C 1154.018 753.506, 1159.278 749.124, 1161.910 743.685 C 1163.912 739.550, 1164 737.843, 1164 703.156 L 1164 666.944 1150.250 667.222 L 1136.500 667.500 1136.235 697.750 L 1135.971 728 1107.117 728 L 1078.263 728 1077.790 720.750 C 1077.039 709.249, 1072.249 702.201, 1063.101 699.138 C 1060.892 698.399, 1050.386 698.008, 1033.101 698.022 C 1009.379 698.042, 1006.067 698.244, 1002.500 699.890 C 994.511 703.577, 991 710.012, 991 720.968 L 991 728 974 728 L 957 728 957 707.943 C 957 683.962, 956.273 680.221, 950.492 674.440 C 943.226 667.174, 940.820 666.794, 904.765 667.212 C 870.889 667.605, 870.026 667.734, 864.128 673.311 C 857.650 679.437, 857.041 682.125, 857.066 704.500 C 857.094 730.053, 858.284 733.887, 867.500 738.119 C 870.616 739.550, 873.986 739.961, 882.750 739.978 L 894 740 894 750 L 894 760 858.010 760 L 822.020 760 821.760 713.750 L 821.500 667.500 811.232 667.215 C 803.270 666.994, 800.846 667.237, 800.439 668.297 M 2424.885 668.345 C 2418.534 670.675, 2415.210 673.828, 2411.795 680.760 L 2408.500 687.448 2408.192 711.974 C 2408.023 725.463, 2408.161 737.989, 2408.499 739.810 C 2409.350 744.398, 2415.017 750.310, 2421.258 753.123 C 2426.233 755.365, 2427.760 755.502, 2451.250 755.820 L 2476 756.154 2476 773.577 L 2476 791 2441.973 791 L 2407.945 791 2408.223 805.250 L 2408.500 819.500 2446 819.500 C 2466.625 819.500, 2485.228 819.135, 2487.340 818.688 C 2492.473 817.602, 2499.174 811.279, 2502.137 804.727 L 2504.500 799.500 2504.500 741.500 C 2504.500 684.034, 2504.480 683.463, 2502.347 679.500 C 2499.643 674.474, 2496.571 671.590, 2491.486 669.301 C 2487.988 667.725, 2483.892 667.476, 2458 667.262 C 2435.480 667.077, 2427.645 667.333, 2424.885 668.345 M 1442.453 670.914 C 1436.146 674.531, 1430.523 680.680, 1427.413 687.360 C 1425.231 692.046, 1425.019 693.802, 1425.010 707.250 L 1425 722 1419.750 722.010 C 1404.993 722.037, 1390.402 736.497, 1391.200 750.303 L 1391.500 755.500 1431.500 755.788 C 1453.500 755.946, 1472.883 755.828, 1474.572 755.526 C 1478.516 754.820, 1483.470 749.957, 1486.773 743.547 C 1488.913 739.397, 1489.386 737.079, 1489.438 730.500 L 1489.500 722.500 1471.711 722.227 L 1453.923 721.954 1454.211 713.227 L 1454.500 704.500 1471.250 704.226 L 1488 703.952 1488 694.436 C 1488 682.907, 1486.496 679.339, 1478.802 672.608 L 1473.534 668 1460.517 668.009 C 1447.996 668.018, 1447.308 668.129, 1442.453 670.914 M 2436 711.500 L 2436 728 2456 728 L 2476 728 2476 711.500 L 2476 695 2456 695 L 2436 695 2436 711.500 M 1020 741.500 L 1020 758 1034.500 758 L 1049 758 1049 741.500 L 1049 725 1034.500 725 L 1020 725 1020 741.500 M 1621.435 781.308 C 1621.159 782.028, 1621.061 787.990, 1621.217 794.558 L 1621.500 806.500 1634.250 806.780 L 1647 807.060 1647 793.530 L 1647 780 1634.469 780 C 1625.069 780, 1621.812 780.327, 1621.435 781.308 M 833.449 793.274 C 833.166 794.009, 833.062 800.211, 833.218 807.055 L 833.500 819.500 845.500 819.500 L 857.500 819.500 857.500 806 L 857.500 792.500 845.731 792.218 C 836.627 792, 833.845 792.239, 833.449 793.274 M 867.219 792.844 C 866.260 793.452, 866.009 796.912, 866.219 806.578 L 866.500 819.500 877.857 819.784 C 885.374 819.972, 889.685 819.677, 890.607 818.911 C 891.659 818.038, 892 814.753, 892 805.485 C 892 795.218, 891.742 793.115, 890.418 792.607 C 888.066 791.704, 868.703 791.902, 867.219 792.844 M 831.656 884.750 C 831.188 885.510, 829.357 890.298, 801.559 963.442 C 793.002 985.961, 786 1005.661, 786 1007.220 L 786 1010.056 799.608 1009.778 L 813.215 1009.500 816.587 1000 C 818.441 994.775, 820.680 988.587, 821.562 986.250 L 823.165 982 846 982 L 868.835 982 870.403 986.250 C 871.266 988.587, 873.466 994.775, 875.292 1000 L 878.611 1009.500 893.306 1009.777 C 901.387 1009.929, 908 1009.741, 908 1009.359 C 908 1008.976, 897.351 980.614, 884.336 946.332 L 860.673 884 846.395 884 C 838.543 884, 831.910 884.337, 831.656 884.750 M 1022.440 885.295 C 1022.154 886.040, 1022.051 890.891, 1022.210 896.075 L 1022.500 905.500 1035.500 905.500 L 1048.500 905.500 1048.500 895 L 1048.500 884.500 1035.730 884.220 C 1025.712 884, 1022.848 884.232, 1022.440 885.295 M 1381 947 L 1381 1010 1394.989 1010 L 1408.978 1010 1409.239 969.537 L 1409.500 929.074 1434.419 969.537 L 1459.337 1010 1473.669 1010 L 1488 1010 1488 946.972 L 1488 883.944 1474.250 884.222 L 1460.500 884.500 1460 924.395 L 1459.500 964.289 1437.555 928.395 C 1425.485 908.653, 1414.460 890.602, 1413.055 888.282 L 1410.500 884.063 1395.750 884.032 L 1381 884 1381 947 M 1908.682 946.387 C 1895.657 980.728, 1885 1009.089, 1885 1009.413 C 1885 1009.736, 1891.655 1010, 1899.789 1010 L 1914.578 1010 1919.552 996.250 L 1924.526 982.500 1947.026 982.232 L 1969.526 981.964 1974.387 995.982 L 1979.249 1010 1994.624 1010 C 2003.081 1010, 2009.995 1009.888, 2009.988 1009.750 C 2009.982 1009.612, 1999.294 981.375, 1986.238 947 L 1962.499 884.500 1947.432 884.225 L 1932.364 883.950 1908.682 946.387 M 962 916.333 C 954.987 917.957, 950.869 920.158, 945.386 925.212 L 941 929.255 941 923.627 L 941 918 928.500 918 L 916 918 916 964 L 916 1010 928.945 1010 L 941.890 1010 942.195 980.250 L 942.500 950.500 945.216 945.880 C 948.658 940.025, 953.056 937.829, 961.264 937.868 C 965.666 937.889, 968.104 938.429, 969.943 939.789 C 975.282 943.738, 975.475 945.017, 975.814 978.750 L 976.129 1010 989.064 1010 L 1002 1010 1002 975.682 C 1002 938.903, 1001.585 935.132, 996.748 927.954 C 990.046 918.009, 975.610 913.181, 962 916.333 M 1114.407 915.981 C 1107.750 917.382, 1103.398 919.591, 1098.618 923.998 L 1094.116 928.148 1093.808 923.324 L 1093.500 918.500 1081 918.500 L 1068.500 918.500 1068.240 964.250 L 1067.980 1010 1081.436 1010 L 1094.892 1010 1095.196 979.750 L 1095.500 949.500 1098.222 944.870 C 1102.348 937.850, 1110.682 935.169, 1118.377 938.384 C 1124.535 940.957, 1125 943.813, 1125 979.020 L 1125 1010 1138.500 1010 L 1152 1010 1152 980.212 C 1152 951.302, 1152.066 950.293, 1154.250 945.985 C 1157.161 940.241, 1161.741 937.571, 1168.684 937.571 C 1175.214 937.571, 1179.014 940.119, 1180.671 945.606 C 1181.451 948.192, 1181.872 959.663, 1181.923 979.750 L 1182 1010 1195.500 1010 L 1209 1010 1208.979 977.750 C 1208.956 942.548, 1208.317 936.630, 1203.686 928.728 C 1197.865 918.794, 1184.882 913.687, 1171.096 915.907 C 1163.242 917.172, 1157.538 919.888, 1152.004 924.997 L 1147.714 928.957 1143.895 924.618 C 1141.760 922.193, 1137.960 919.369, 1135.282 918.217 C 1129.629 915.785, 1120.157 914.770, 1114.407 915.981 M 2045.176 916.014 C 2022.698 920.729, 2009.559 942.701, 2012.892 970 C 2014.259 981.191, 2017.803 989.661, 2023.876 996.250 C 2036.614 1010.068, 2060.752 1011.937, 2074.183 1000.144 C 2076.152 998.415, 2078.028 997, 2078.351 997 C 2079.602 997, 2077.663 1013.725, 2075.948 1017.723 C 2072.775 1025.119, 2063.884 1028.411, 2053.413 1026.068 C 2047.982 1024.853, 2043.922 1021.481, 2042.502 1017.005 C 2041.908 1015.134, 2040.999 1015, 2028.933 1015 L 2016 1015 2016.010 1017.750 C 2016.025 1022.165, 2020.342 1030.190, 2024.923 1034.320 C 2032.641 1041.278, 2042.084 1044, 2058.500 1044 C 2075.284 1044, 2084.527 1041.242, 2092.559 1033.839 C 2095.100 1031.497, 2098.202 1027.537, 2099.453 1025.040 C 2104.235 1015.490, 2104.484 1012.469, 2104.492 964 L 2104.500 918.500 2091.750 918.220 L 2079 917.940 2079 922.586 L 2079 927.233 2074.872 923.504 C 2072.602 921.453, 2068.876 918.948, 2066.592 917.938 C 2061.568 915.715, 2051.087 914.774, 2045.176 916.014 M 2271 916.387 C 2264.434 917.843, 2259.977 920.053, 2254.250 924.691 L 2250 928.134 2250 923.067 L 2250 918 2237.500 918 L 2225 918 2225 964 L 2225 1010 2238 1010 L 2251 1010 2251.024 983.250 C 2251.038 968.518, 2251.513 954.487, 2252.081 952.020 C 2254.177 942.924, 2260.428 937.857, 2269.553 937.857 C 2276.620 937.857, 2280.062 939.624, 2282.498 944.500 C 2284.338 948.186, 2284.522 950.919, 2284.844 979.278 L 2285.194 1010.057 2298.347 1009.778 L 2311.500 1009.500 2311.500 975.500 C 2311.500 944.941, 2311.310 940.921, 2309.623 935.782 C 2306.176 925.280, 2297.792 918.115, 2286.566 916.077 C 2279.449 914.785, 2278.104 914.812, 2271 916.387 M 1256.698 917.096 C 1249.513 918.786, 1241.513 923.353, 1235.866 928.987 C 1226.344 938.487, 1222 949.769, 1222 965 C 1222 994.284, 1240.099 1012.946, 1268.540 1012.988 C 1282.831 1013.009, 1295.141 1008.154, 1302.737 999.500 C 1306.765 994.912, 1312.469 983.567, 1311.520 982.032 C 1311.139 981.416, 1306.097 981, 1299.016 981 L 1287.150 981 1284.825 985.161 C 1283.546 987.450, 1281.311 990.202, 1279.858 991.276 C 1274.270 995.407, 1262.905 995.205, 1256.812 990.866 C 1253.085 988.213, 1249.023 979.821, 1249.010 974.750 L 1249 971 1281.601 971 L 1314.203 971 1313.533 963.750 C 1311.193 938.405, 1299.900 922.593, 1280.540 917.552 C 1274.100 915.875, 1262.803 915.659, 1256.698 917.096 M 1537.024 917.603 C 1522.070 921.622, 1510.378 933.648, 1505.595 949.932 C 1503.603 956.716, 1503.509 972.568, 1505.420 979.744 C 1509.683 995.760, 1521.177 1007.503, 1536.460 1011.458 C 1543.219 1013.207, 1556.352 1013.446, 1562.885 1011.940 C 1574.970 1009.154, 1587.829 998.425, 1591.802 987.813 C 1592.896 984.891, 1593.587 982.163, 1593.337 981.750 C 1593.087 981.337, 1587.520 981, 1580.967 981 L 1569.051 981 1567.405 984.250 C 1563.801 991.366, 1559.381 994.143, 1551.548 994.213 C 1538.788 994.328, 1533.261 989.053, 1530.628 974.250 L 1530.050 971 1562.672 971 L 1595.294 971 1594.712 961.750 C 1593.274 938.882, 1581.305 922.438, 1562.540 917.552 C 1555.172 915.633, 1544.273 915.655, 1537.024 917.603 M 1774.741 917.562 C 1758.883 921.405, 1751 930.259, 1751 944.228 C 1751 952.138, 1752.478 956.324, 1756.794 960.641 C 1761.459 965.305, 1767.909 967.889, 1785.834 972.274 C 1804.030 976.726, 1808 978.854, 1808 984.155 C 1808 988.581, 1806.314 990.954, 1801.669 993.063 C 1795.814 995.721, 1787.593 995.591, 1781.971 992.750 C 1777.658 990.571, 1776.019 988.512, 1774.009 982.750 L 1773.050 980 1760.885 980 L 1748.720 980 1749.275 985.372 C 1750.638 998.580, 1761.785 1008.925, 1777.960 1011.992 C 1785.007 1013.329, 1799.601 1013.274, 1806.201 1011.885 C 1818.767 1009.242, 1829.326 1001.362, 1832.403 992.329 C 1836.158 981.311, 1833.597 970.235, 1825.741 963.511 C 1820.566 959.081, 1813.822 956.550, 1797.500 952.914 C 1790.350 951.321, 1783.049 949.351, 1781.276 948.537 C 1775.490 945.881, 1775.556 938.388, 1781.390 935.619 C 1785.695 933.577, 1795.191 933.522, 1799.393 935.516 C 1802.665 937.069, 1806 941.555, 1806 944.404 C 1806 945.781, 1807.734 946, 1818.636 946 L 1831.272 946 1830.655 941.497 C 1829.509 933.138, 1823.321 924.803, 1815.109 920.557 C 1806.675 916.195, 1786.545 914.702, 1774.741 917.562 M 2153.754 917.084 C 2147.093 918.654, 2137.728 924.101, 2132.551 929.415 C 2123.673 938.530, 2119 950.968, 2119 965.482 C 2119 994.147, 2137.684 1013, 2166.092 1013 C 2184.858 1013, 2199.575 1004.468, 2206.625 989.500 C 2210.664 980.925, 2210.749 981, 2197.094 981 L 2185.188 981 2181.626 985.958 C 2177.088 992.274, 2173.201 994.300, 2165.823 994.196 C 2154.812 994.039, 2148.285 987.752, 2146.453 975.538 L 2145.773 971 2178.386 971 L 2211 971 2210.983 965.750 C 2210.958 958.232, 2208.505 947.675, 2205.083 940.364 C 2199.753 928.973, 2189.783 920.625, 2177.650 917.395 C 2171.950 915.877, 2159.557 915.716, 2153.754 917.084 M 2361.265 917.542 C 2344.715 921.999, 2333.146 933.962, 2328.908 951 C 2326.801 959.467, 2327.281 974.200, 2329.917 982 C 2336.428 1001.268, 2352.188 1012, 2373.971 1012 C 2389.375 1012, 2399.014 1008.142, 2407.900 998.419 C 2412.944 992.900, 2416.726 984.953, 2417.737 977.750 L 2418.263 974 2405.670 974 L 2393.077 974 2392.041 977.849 C 2389.641 986.761, 2383.233 992, 2374.733 992 C 2362.426 992, 2355.337 983.693, 2354.265 968.018 C 2352.880 947.751, 2361.830 934.992, 2376.575 936.215 C 2383.379 936.779, 2388.191 940.316, 2390.547 946.483 L 2392.272 951 2405.215 951 L 2418.159 951 2417.458 947.750 C 2413.064 927.377, 2397.488 915.878, 2374.540 916.066 C 2370.118 916.102, 2364.144 916.766, 2361.265 917.542 M 845.607 918 C 845.289 918.825, 841.704 928.725, 837.643 940 L 830.258 960.500 838.129 960.790 C 842.458 960.950, 849.557 960.950, 853.904 960.790 L 861.807 960.500 853.997 938.500 C 849.702 926.400, 845.926 917.175, 845.607 918 M 1022.695 918.638 C 1022.313 919.021, 1022 939.733, 1022 964.667 L 1022 1010 1035.510 1010 L 1049.020 1010 1048.760 964.250 L 1048.500 918.500 1035.945 918.222 C 1029.040 918.068, 1023.077 918.256, 1022.695 918.638 M 1600.958 918.722 C 1600.936 919.150, 1607.348 939.854, 1615.208 964.731 L 1629.500 1009.963 1643.112 1009.981 L 1656.725 1010 1660.435 995.750 C 1662.475 987.913, 1665.838 974.750, 1667.907 966.500 L 1671.668 951.500 1673.259 957 C 1675.167 963.596, 1687 1008.819, 1687 1009.513 C 1687 1009.781, 1693.188 1009.992, 1700.750 1009.983 L 1714.500 1009.966 1728.430 965.233 C 1736.091 940.630, 1742.552 919.938, 1742.787 919.250 C 1743.115 918.290, 1740.054 918, 1729.607 918 C 1722.123 918, 1716 918.216, 1716 918.481 C 1716 919.844, 1700.682 974.604, 1700.132 975.206 C 1699.777 975.595, 1696.159 962.882, 1692.092 946.956 L 1684.697 918 1672.048 918 L 1659.400 918 1652.535 946.250 C 1648.759 961.788, 1645.376 975.085, 1645.017 975.800 C 1644.658 976.515, 1641.326 965.715, 1637.613 951.800 C 1633.899 937.885, 1630.292 924.700, 1629.598 922.500 L 1628.336 918.500 1614.668 918.222 C 1607.151 918.069, 1600.981 918.294, 1600.958 918.722 M 2422.238 920.250 C 2422.497 921.487, 2429.790 941.175, 2438.445 964 C 2447.100 986.825, 2454.387 1006.850, 2454.639 1008.500 C 2454.906 1010.258, 2454.351 1012.949, 2453.298 1015 C 2451.051 1019.374, 2447.019 1020.868, 2437.250 1020.944 L 2430 1021 2430 1031.592 L 2430 1042.183 2444.750 1041.822 C 2457.536 1041.509, 2460.045 1041.171, 2463.595 1039.289 C 2468.545 1036.664, 2473.180 1031.560, 2476.379 1025.213 C 2478.569 1020.866, 2516 920.226, 2516 918.684 C 2516 918.308, 2509.972 918, 2502.604 918 L 2489.207 918 2481.524 941.653 C 2477.298 954.662, 2472.911 968.274, 2471.775 971.903 L 2469.710 978.500 2459.617 948.250 L 2449.525 918 2435.646 918 C 2421.780 918, 2421.767 918.002, 2422.238 920.250 M 1946.018 921.500 C 1944.468 925.414, 1932 960.262, 1932 960.680 C 1932 960.856, 1938.750 961, 1947 961 C 1955.250 961, 1962 960.631, 1962 960.180 C 1962 959.460, 1950.787 927.666, 1948.183 921 L 1947.206 918.500 1946.018 921.500 M 1265.500 935.708 C 1260.085 936.709, 1258.921 937.195, 1255.935 939.708 C 1252.687 942.441, 1249.063 949.017, 1249.022 952.250 C 1249.002 953.854, 1250.539 954, 1267.500 954 C 1285.854 954, 1286 953.983, 1286 951.816 C 1286 947.887, 1281.884 940.949, 1278.129 938.548 C 1274.474 936.211, 1269.200 935.025, 1265.500 935.708 M 1547.500 935.494 C 1546.950 935.676, 1545.297 936.089, 1543.827 936.412 C 1538.314 937.623, 1531 946.489, 1531 951.960 C 1531 953.940, 1531.545 954, 1549.631 954 L 1568.262 954 1567.671 950.360 C 1566.857 945.343, 1562.838 939.616, 1558.839 937.775 C 1555.338 936.163, 1549.205 934.929, 1547.500 935.494 M 2161.500 935.960 C 2153.940 937.738, 2148.417 943.405, 2146.599 951.250 L 2145.962 954 2164.876 954 L 2183.789 954 2183.053 950.750 C 2181.409 943.488, 2176.526 937.540, 2171.338 936.478 C 2165.940 935.374, 2164.348 935.290, 2161.500 935.960 M 2053.843 936.937 C 2048.519 938.621, 2045.063 941.466, 2042.311 946.429 C 2039.725 951.094, 2039.502 952.340, 2039.519 962 C 2039.537 971.442, 2039.810 973.019, 2042.234 977.646 C 2047.015 986.776, 2056.942 990.331, 2066.209 986.232 C 2072.039 983.653, 2075.540 978.956, 2077.586 970.970 C 2080.988 957.690, 2076.709 943.004, 2068.149 938.577 C 2064.602 936.743, 2057.155 935.889, 2053.843 936.937" stroke="none" fill="#040ccc" fill-rule="evenodd"/></svg>